<?xml version="1.0" standalone="yes"?>
<svg width="1024" height="1024">
<path style="fill:#fefefe; stroke:none;" d="M0 0L0 1024L1024 1024L1024 328L1024 164L1024 126C1024 122.014 1025.73 115.013 1021 114C1022.03 110.42 1022.13 108.258 1019 106L1019 97L1018 97L1018 105L1012 105L1012 106L1018 109L1013 107C1008.69 112.701 1004.52 108.151 999 106L999 111L998 111L994 103L993 103C991.018 106.124 989.287 110.99 994 112L994 111L992 110L994 107L995 113L1004 117L1003 118L999 117L1000 127L1001 127L1001 122L1002 122L1005 126L1004 123L1006 124L1006 123C1004.51 119.025 1005.53 114.582 1001 113L1001 109L1004 110L1003 112L1006 116L1011 115L1012 119L1007 118L1007 123L1012 121L1011 125L1017 125L1016 130L1018 130L1017 133L1013 131L1013 138L1022 143L1023 147L1018 147L1021 149L1023 159L1018 158L1017 163C1020.09 163 1018.45 165.558 1018 168L1015 167L1017 165L1017 157L1011 151L1009 158L1012 159C1009.76 162.445 1010.66 164.823 1014 167L1013 176L1010 177L1010 180L1009 168L1004 167L990 170L991 173L991 174L997 189L994 190L993 189L991 183L991 182C996.848 177.717 989.173 173.332 985 172L988 167C985.94 162.178 983.287 159.594 978 159L976 155L977 157L976 157L968 155L966 159L964 157L960 154L960 149L963 148L960 147L960 146L972 148L972 152L976 151L975 147L979 147L975 142L980 141L979 143L981 140L976 140L976 139L978 137L979 137L981 139L985 129L981 145L981 146L981 147C983.276 148.669 985.857 151.347 984 154L987 155L989 151L994 155L993 158L999 159L999 143L1000 143L1005 154L1006 139L1004 137L1000 137L997 123L992 126L992 132L991 132L985 121L993 121C992.329 118.719 991.366 115.926 989 118L988 118L985 109L990 105L990 100L986 99L986 103L980 102L983 107L974 106L974 111L973 111L973 107L959 106L962 103L954 100L954 97L961 97L961 96L956 95L961 88C953.417 88.2737 944.249 91.7839 939 85C942.021 84.3493 942.086 83.0856 940 81L940 80L942 78L941 77L935 77L938 78C939.995 75.0916 941.353 76.3556 943 79L944 79L949 75L949 74L939 74L938 72L941 66L941 65L938 63L942 63L944 58L926 54L935 63L922 58L922 57L912 55L910 59L916 60L916 61L907 59L907 58L909 58L909 56L903 57L903 56L911 54L907 46C911.74 46.9187 914.973 48.0993 919 45L918 48L925 49L924 46L927 47C927.36 44.3073 928.441 44.62 931 45L932 41L919 40L919 39L925 39L924 35L918 34L914 35L913 39L910 38L910 43L915 45L915 46L899 42L901 42L901 41L899 41L899 33L893 36L895 34L893 30L896 27C891.09 26.7892 883.274 24.3724 885 32L880 32L881 40L876 41L877 43L874 44L874 42L867 40L866 46L862 46L862 47L865 48L862 53L864 53L859 55L861 64L874 61L873 65L874 65L879 60L884 61L876 67L872 66L855 67L855 68L851 68L846 64L841 71L839 70L837 72L838 70L837 70L836 73C833.971 71.1403 833.69 68.4271 837 68L837 67L833 67L833 71L827 69L828 66L823 64L819 69L824 70L824 71L809 68C805.966 73.0439 803.135 69.3072 799 68L799 67L803 67L803 63L794 63L794 62L797 62L795 59L803 59L813 56L813 58L809 58L809 59L815 59L815 56L823 55L825 58L826 54C830.159 55.2259 835.012 58.0085 838 54L834 55L833 52L832 54L831 54L836 53L833 50L833 49L837 49L837 47L816 48L816 49L818 49L818 50L801 53L801 57L800 57C798.541 51.8135 788.655 54.4346 784 55C783.53 51.7009 780.08 51.3052 777 51L777 48L776 48L776 52L775 52L769 48L771 42L776 42L776 41L772 41L776 39C772.781 30.6061 769.357 34.9353 763 36.5833C759.336 37.5333 754.96 35.5182 754 40L766 40L765 37C768.008 40.3798 765.111 41.9573 762 44L764 46L759 47L761 51L757 52L761 56L761 57L755 65L757 62L753 61L753 60L755 55C750.994 54.2322 750.687 51.6782 750 48L754 47L759 42L759 41L750 41L750 37L746 38L746 33L740 34L740 35L742 35L742 36L737 41L733 40L735 46L731 48L737 47L737 48L731 49L731 55L727 54L728 59L723 61L725 65L721 64L723 66L723 67L721 70L725 67L725 71L723 72L719 72L720 54L722 56L724 42L714 42L715 39L712 40L714 38L716 31L712 33L699 27L700 30L695 31L696 36C692.984 35.5967 693.634 33.701 694 31L690 30L687 36L684 27L688 28L687 24L688 23L693 24L693 23L689 22L686 19L687 21L675 16L665 18L665 19L680 22L680 23L675 24L675 25L682 24L681 29L675 29L678 27L678 26L673 23L668 25L668 24L671 23L653 22L653 21L661 21L658 19L669 16L664 5L670 4L668 11L669 12L672 11L672 13L680 9L683 12L681 7L688 15L698 15L698 16L695 19L692 19C695.054 24.0907 702.697 12.2112 701 19L708 21L710 20L709 15L710 15L711 18L712 18L714 14L721 16L724 9L717 8L720 0L0 0z"/>
<path style="fill:#feffff; stroke:none;" d="M717 8L724 9L721 16L714 14L712 18L711 18L710 15L709 15L710 20L708 21L701 19L692 19L695 19L698 16L698 15L688 15L681 7L683 12L680 9L672 13L672 11L669 12L668 11L670 4L667 3L664 5L669 16L658 19L661 21L653 21L653 22L671 23L668 24L668 25L673 23L678 26L678 27L675 29L681 29L682 24L675 25L675 24L680 23L680 22L665 19L665 18L675 16L687 21L686 19L687 19L689 22L693 23L693 24L688 23L687 24L688 28L684 27L687 36L690 30L694 31C693.403 33.8397 692.911 35.6111 696 36L695 31C698.034 30.5043 699.071 30.1259 699 27L712 33L716 31L712 40L715 39L714 42L724 42L722 56L720 54L719 72L723 72L723 70L725 71L725 67L721 70L723 67L723 66L721 64L725 65L723 61L728 59L727 54L731 55L731 49L737 48L737 47L731 48L735 46L733 40L737 41L742 36L742 35L740 35L740 34L746 33L746 38L750 37L750 41L759 41L759 42C755.503 42.5564 753.906 43.3194 754 47L750 48C750.32 52.0104 750.544 54.5604 755 55L753 60L753 61L757 62L755 65L761 57L761 56L758 55L757 52L761 51L759 47L764 46L762 44C765.265 42.4766 768.923 39.9644 765 37L766 40L754 40C757.959 33.893 772.076 33.1205 776 39L772 41L776 41L776 42L771 42L769 48L775 52L776 52L776 48L777 48L777 51L784 55C788.796 54.7528 797.264 52.6896 800 57L801 57L801 53L818 50L818 49L816 49L816 48L837 47L837 49L833 49L833 50L836 53C833.345 51.3361 831.753 50.5052 831 54L832 54L833 52L834 55L838 54L837 57L826 54L825 58L823 55L815 56L815 59L809 59L809 58L813 58L813 56C808.925 55.6716 805.482 55.3925 803 59L795 59C795.942 61.288 796.562 61.6583 794 62L794 63L803 63L803 67L799 67L799 68C802.565 69.655 807.228 74.033 809 68L824 71L824 70L819 69L823 64L828 66L827 69L833 71L833 67L837 67L837 68L834 68L836 73L838 70L837 72L839 70L841 71L846 64L851 68L855 68L855 67L852 67L853 64C857.449 66.6046 867.794 70.4322 872 66L876 67L884 61L879 60L874 65L873 65L874 61L861 64L859 55L864 53L862 53L865 48L862 47L862 46L866 46L867 40L874 42L874 44L877 43L876 41L881 40L880 32L885 32C884.276 24.7411 890.845 26.8942 896 27L893 30L893 36L896 37L899 33L901 41L901 42L899 42L899 43L915 46L915 45L910 43L910 38L913 39L914 35C916.792 35.9306 917.425 36.8768 918 34L924 35L925 39L919 39L919 40L932 41L931 45C928.253 44.1711 927 44.0121 927 47L924 46L925 49L923 47L918 48L919 45L917 48L907 46L911 54L903 56L903 57L909 56L907 58L907 59L916 61L916 60L910 59L912 55L922 57L922 58L919 58C922.249 62.5574 929.739 62.5842 935 63L934 60C929.892 59.3853 927.82 57.7125 926 54L944 58L942 63C939.07 62.6937 937.31 64.2079 941 65L941 66L938 72L939 74L949 74L949 75L944 79L943 79C942.047 75.6016 938.974 73.4545 938 78L935 77L936 80L941 77L942 78L940 80L940 81L939 85C942.88 92.4839 954.092 88.735 961 88L956 95L961 96L961 97L954 97L954 100L962 103L959 106L973 107L973 111L974 111L974 106L983 107L980 102L986 103L986 99L990 100L990 105L985 109L988 118L989 118L993 121L985 121L991 132L992 132L992 126L997 123L1000 137L1004 137L1006 139L1005 154L1000 143L999 143L999 159L993 158L994 155L993 153L989 151L987 155L984 154L986 152L981 147L981 146L981 145C986.005 140.93 984.705 134.713 985 129L982 130L981 139L979 137L978 137L976 139L976 140C978.449 140.289 980.558 140.48 979 143L980 141L979 141L975 142L979 147L975 147L976 151L972 152L972 148L960 146L960 147L963 148L960 149L960 154L966 159L968 155L977 157L976 155L977 155L978 159C982.942 160.005 985.372 162.836 988 167L985 172C989.325 173.941 994.92 176.993 991 182L991 183L993 189L994 190L997 189C994.947 184.344 996.442 175.592 991 174L991 173L993 172L990 170L1004 167L1009 168C1007.41 171.985 1007.77 176.276 1010 180L1010 177L1013 176L1014 167L1009 158L1011 151L1017 157L1015 167L1018 168L1017 163L1018 158L1023 159L1018 147L1021 148L1023 147L1022 143L1013 138L1013 131L1017 133L1018 130L1016 130L1017 125L1011 125L1012 121L1007 123L1007 118L1012 119L1011 115L1006 116L1003 112L1004 110L1001 109L1001 113L1006 124L1004 123L1005 126L1002 122L1001 122L1001 127L1000 127L999 117L1003 118L1004 117L995 113L994 107L994 111L994 112C990.312 109.597 991.463 106.656 993 103L994 103L998 111L999 111L999 106C1003.94 108.654 1009.62 113.559 1013 107L1018 109L1012 106L1012 105L1018 105L1018 97L1019 97L1019 106L1021 114C1026.77 112.764 1024 92.4053 1024 87L1024 0L789 0L735 0C726.935 0 718.579 -1.89868 717 8z"/>
<path style="fill:#fefffe; stroke:none;" d="M536 407L520 420L520 421L522 423L514 422L516 420L511 420L505 416L504 416L498 417L489 416L490 425L487 428L485 429L484 429L484 423C486.851 422.386 486.854 421.697 486 419L485 422L484 422L484 419L483 419L468 421L468 422L476 423L472 429L477 430L477 431L474 431L474 432L476 432L476 433L469 433L466 441L446 437L446 436L453 435L451 432C447.464 432.136 437.761 433.594 443 439L443 440L434 436L427 441L433 441L440 442L440 445L436 445L436 446L438 447C432.895 448.377 427.184 447.435 425 453L429 451L430 456C426.561 456.505 424.748 457.353 425 461L427 459L431 463L429 464L429 465L433 465C432.425 467.396 432.525 467.487 435 468L435 469C430.268 469.016 426.449 468.872 425 474L422 472L422 476C417.222 476.001 409.82 474.527 407 479L406 479L406 474L405 474L405 477L402 476L402 480L412 480L412 481L409 481C412.667 490.532 422.918 502.815 431 509L431 481L443 481L443 530L430 530L429 527L426 528L422 526L422 527L425 530L411 539L414 537C412.024 549.789 426.173 542.872 430.972 550.303C435.15 556.772 432 573.38 432 581L437 580L437 587L438 587L447 566L437 567L442 558L437 560L440 555L435 557L449 545L447 548L453 546L446 538L450 540L451 537L455 537L455 538L451 539L451 543L453 544C460.042 541.237 467.406 534.883 468 527L471 525L468 522C479.124 519.645 470.174 509.025 467 503L466 503L466 530L454 530L454 481C469.998 481.002 473.59 497.893 481 510C492.192 500.476 491.7 481.013 509 481L509 513L514 513L513 509L518 510C518.003 481.771 554.475 467.576 568 496L569 496L567 490C571.167 490.966 572.152 496.199 573 500L574 500L574 493L575 493L575 495L576 495L578 483L577 480C587.913 483.226 600.201 478.436 611 482.563C616.846 484.797 622.211 490.391 619.838 497C618.79 499.919 616.674 502.425 615 505C617.121 505.929 621.444 509.079 622 506L627 514C634.273 509.989 631.379 488.872 632 481L644 481L644 506L645 506L645 482L646 482L646 494L651 494L651 499L653 499L655 481L667 481L667 520L691 520L692 528C700.771 517.413 704.957 500.498 710.695 488.001C713.004 482.972 718.649 477.542 724.362 482.603C733.365 490.579 731.393 509.586 742 516L738 506C741.481 509.685 742.433 513.558 748 514L749 495L751 496L751 481L786 482L785 479L785 478L789 478L784 473L782 477L783 474L778 469L779 472L763 465L764 460C759.962 461.428 757.923 461.28 755 458L751 459L752 464L748 463L740 466L740 467L748 473L748 474L741 475L727 472L721 469L721 471C714.421 467.583 703.252 472.425 702 480C695.271 479.544 691.325 480.727 688 487L684 487L684 485L681 486L681 487L685 492L680 493C680.42 487.962 678.923 482.684 684 480L684 479L676 479L676 475L671 470L667 472L666 472C663.429 470.173 662.139 470.779 660 473L659 473C657.32 470.084 654.678 470.838 654 474L647 471L645 474L638 471L637 469L637 468L640 467L639 464L634 466L636 463L633 464L632 455L633 455L634 462L637 462L636 458L638 459L638 458L639 452L627 449L621 449L621 445L617 444L618 441L614 439L618 439L594 437L590 431L598 428L598 427L591 428L590 424L589 424L586 425L587 428L580 425L586 421L586 420C582.395 417.739 578.091 414.767 575 419L580 419L580 420L577 420L577 421L580 422L576 423L579 430L575 431L576 428L569 425L562 426L564 422L564 421L560 421L560 420L566 418L566 417L561 411L560 411L560 416L556 422L550 419L540 423L540 422L542 421L538 420L539 416L544 417C543.423 413.526 542.474 412.577 539 412L538 407L536 407z"/>
<path style="fill:#1c7ec1; stroke:none;" d="M158 534C163.179 531.692 173.066 525.63 174.682 519.829C176.342 513.869 172.668 505.701 176.603 500.439C187.119 486.377 207.198 474.218 221 463.339C226.14 459.287 237.148 445.906 244 446.421C249.707 446.85 256.798 455.414 261 458.92C271.952 468.058 282.9 477.238 294 486.197C299.182 490.379 306.627 494.537 310.397 500.089C313.406 504.522 311.068 510.122 312.318 514.985C313.894 521.117 323.545 526.694 329 529C329 518.4 332.146 501.935 328.397 492.015C324.979 482.974 311.903 479.717 306.603 471.911C302.414 465.739 305 452.248 305 445L289 445L289 457C277.917 450.075 268.068 440.566 258 432.25C254.296 429.191 248.996 423.154 244 422.581C240.134 422.137 236.731 425.994 234 428.197C226.594 434.17 219.384 440.386 212 446.389C199.257 456.748 186.66 467.289 174 477.75C169.267 481.66 160.854 486.06 158.603 492.015C154.378 503.193 158 522.041 158 534z"/>
<path style="fill:#65acd5; stroke:none;" d="M288 446L288 457L289 457L288 446z"/>
<path style="fill:#d1e3e6; stroke:none;" d="M305 446L305 472L306 472L305 446z"/>
<path style="fill:#d6edd0; stroke:none;" d="M236 470L236 471L250 471L236 470z"/>
<path style="fill:#54b742; stroke:none;" d="M235 471C233.231 478.642 227.342 487.283 218 486.027C213.387 485.407 210.717 481.092 206 484.361C195.103 491.914 203.759 502.071 198.211 512.957C195.538 518.204 189.002 517.977 188 524L209 524C214.35 484.462 273.412 483.163 277 524L298 524C296.945 517.622 289.271 516.992 286.44 510.996C285.191 508.352 283.258 505.007 283.452 502C283.731 497.684 287.951 494.428 285.353 490.015C278.559 478.472 272.683 487.967 264 485.571C254.484 482.945 256.211 476.747 250.262 472.028C247.021 469.457 238.948 471 235 471z"/>
<path style="fill:#99d387; stroke:none;" d="M252.333 476.667L252.667 477.333L252.333 476.667z"/>
<path style="fill:#92d681; stroke:none;" d="M253.333 479.667L253.667 480.333L253.333 479.667z"/>
<path style="fill:#939699; stroke:none;" d="M538 480L538 481L550 481L538 480z"/>
<path style="fill:#6a7078; stroke:none;" d="M375 481L375 530L386 530L386 529L376 529L376 482L386 482L375 481z"/>
<path style="fill:#aaaeb2; stroke:none;" d="M386 481L386 530L387 530C387 516.212 391.309 493.652 386 481z"/>
<path style="fill:#c0c3c6; stroke:none;" d="M398 481L398 530L399 530C399 516.212 403.309 493.652 398 481z"/>
<path style="fill:#81878d; stroke:none;" d="M399 481L399 482L408 482L399 481z"/>
<path style="fill:#72797f; stroke:none;" d="M431 481L430 510C434.975 505.653 432 488.47 432 482L442 482L442 486L443 486L443 481L431 481z"/>
<path style="fill:#dce1e1; stroke:none;" d="M454 481L454 530L455 530C455 516.212 459.309 493.652 454 481z"/>
<path style="fill:#81858c; stroke:none;" d="M455 481L455 482L465 482L455 481z"/>
<path style="fill:#71787e; stroke:none;" d="M499 481L499 482L508 482L508 529L499 529C499 522.53 501.975 505.347 497 501L498 530L509 530L509 481L499 481z"/>
<path style="fill:#474e55; stroke:none;" d="M535 481.638C519.149 486.22 513.504 508.41 523.394 520.996C530.754 530.363 543.077 531.942 554 528.556C570.082 523.572 575.008 501.673 564.471 489.093C557.838 481.175 544.712 478.831 535 481.638z"/>
<path style="fill:#b9b9bd; stroke:none;" d="M579 481L579 530L580 530C580 516.212 584.309 493.652 579 481z"/>
<path style="fill:#8b8d93; stroke:none;" d="M580 481L580 482L608 482L580 481z"/>
<path style="fill:#70747c; stroke:none;" d="M632 481L632 530L643 530L643 529L633 529L633 482L643 482L632 481z"/>
<path style="fill:#afb2b7; stroke:none;" d="M643 481L643 530L644 530C644 516.212 648.309 493.652 643 481z"/>
<path style="fill:#d2d5d4; stroke:none;" d="M655 481L655 530L656 530C656 516.212 660.309 493.652 655 481z"/>
<path style="fill:#84888e; stroke:none;" d="M656 481L656 482L667 482L656 481z"/>
<path style="fill:#71747a; stroke:none;" d="M713 481L713 482L725 482L713 481z"/>
<path style="fill:#e6e7e7; stroke:none;" d="M751 481L751 530L752 530C752 516.212 756.309 493.652 751 481z"/>
<path style="fill:#94999e; stroke:none;" d="M752 481L752 482L777 482L752 481z"/>
<path style="fill:#c1c2c6; stroke:none;" d="M803 481L803 530L804 530C804 516.212 808.309 493.652 803 481z"/>
<path style="fill:#82868f; stroke:none;" d="M804 481L804 482L815 482L804 481z"/>
<path style="fill:#7a7d83; stroke:none;" d="M843 481L843 482L854 482L843 481z"/>
<path style="fill:#494f58; stroke:none;" d="M376 482L376 529L386 529L386 482L376 482z"/>
<path style="fill:#464c54; stroke:none;" d="M399 482L399 529L409 529L409 501C420.352 511.075 425.086 528.998 442 529L442 482L432 482L432 510C420.708 499.978 415.701 482.002 399 482z"/>
<path style="fill:#4b515a; stroke:none;" d="M455 482L455 529L465 529L465 502C469.738 507.023 473.195 521.936 480.206 523.663C488.621 525.735 494.122 505.811 499 501L499 529L508 529L508 482C491.97 482.002 490.032 499.09 481 510C475.485 497.202 470.015 482 455 482z"/>
<path style="fill:#464d55; stroke:none;" d="M580 482L580 529C590.322 529 606.57 532.063 615.985 527.427C625.542 522.721 624.917 508.453 615 505C621.104 498.131 622.987 486.104 612 482.653C602.705 479.732 589.711 482 580 482z"/>
<path style="fill:#4a4e57; stroke:none;" d="M633 482L633 529L643 529L643 482L633 482z"/>
<path style="fill:#464e55; stroke:none;" d="M656 482L656 529L691 529L691 521L668.318 519.972L666 510L666 482L656 482z"/>
<path style="fill:#5d6066; stroke:none;" d="M666 482L666 520L667 520C667 509.089 670.211 492.036 666 482z"/>
<path style="fill:#464d54; stroke:none;" d="M693 529C696.113 529 700.798 529.825 703.502 527.972C706.577 525.864 706.542 521.201 710.213 519.603C713.738 518.069 719.227 518.933 722.999 519.005C730.915 519.154 729.114 524.466 734.418 527.972C737.19 529.805 741.835 529 745 529L731.86 497L725.351 483.603L715.133 482.318L707.576 494L693 529z"/>
<path style="fill:#494f57; stroke:none;" d="M752 482L752 529L763 529L763 515C775.124 515.009 773.243 523.079 782.104 527.972C785.431 529.809 790.33 529 794 529L784 513C794.944 509.245 796.651 491.37 786.957 484.995C777.945 479.068 762.321 482 752 482z"/>
<path style="fill:#b9bdbe; stroke:none;" d="M781.667 482.333L782.333 482.667L781.667 482.333z"/>
<path style="fill:#494f55; stroke:none;" d="M804 482L804 529L815 529L815 482L804 482z"/>
<path style="fill:#e3e5e4; stroke:none;" d="M815 482L815 508L816 508L815 482z"/>
<path style="fill:#4b5057; stroke:none;" d="M822 529C825.41 529 830.589 529.93 833.301 527.397C835.869 524.998 835.987 520.94 839.214 519.028C842.719 516.951 849.065 517.847 852.996 518.019C860.586 518.352 858.735 524.463 863.649 527.972C866.455 529.976 871.729 529 875 529L860.139 494L851.895 482.318L841.994 483.603L835.14 498L822 529z"/>
<path style="fill:#a1a5a8; stroke:none;" d="M410 484L411 485L410 484z"/>
<path style="fill:#9da2a5; stroke:none;" d="M560 485L561 486L560 485z"/>
<path style="fill:#a8abaf; stroke:none;" d="M442 486L442 530L443 530C443 517.52 446.81 497.463 442 486z"/>
<path style="fill:#ffffff; stroke:none;" d="M539 490.742C521.368 497.461 531.275 526.457 549.999 519.258C566.323 512.981 556.641 484.021 539 490.742z"/>
<path style="fill:#858d90; stroke:none;" d="M547.667 490.333L548.333 490.667L547.667 490.333z"/>
<path style="fill:#7f868b; stroke:none;" d="M590 490L590 501L591 501L590 490z"/>
<path style="fill:#ffffff; stroke:none;" d="M591 490L591 500C595.222 500 604.193 501.685 607.392 498.397C615.552 490.009 594.241 490 591 490z"/>
<path style="fill:#bcbebe; stroke:none;" d="M763 490L763 507L775 507L775 506L764 506L764 491L774 491L763 490z"/>
<path style="fill:#8f9191; stroke:none;" d="M620 491L620 496L621 496L620 491z"/>
<path style="fill:#ffffff; stroke:none;" d="M764 491L764 506C768.15 506 774.154 507.076 777.891 504.972C783.323 501.915 782.779 493.838 776.981 491.603C773.193 490.144 768.002 491 764 491z"/>
<path style="fill:#5ca4cd; stroke:none;" d="M157 492L157 523L159 535L157 492z"/>
<path style="fill:#86c77a; stroke:none;" d="M238 492L238 493L246 493L238 492z"/>
<path style="fill:#5899c5; stroke:none;" d="M329 492L328 530L330 520L329 492z"/>
<path style="fill:#fbfcfb; stroke:none;" d="M848 493L842 510L855 510L848 493z"/>
<path style="fill:#a0a6a9; stroke:none;" d="M418 494L419 495L418 494z"/>
<path style="fill:#fdfefe; stroke:none;" d="M718 494L712 510L726 510L720 494L718 494z"/>
<path style="fill:#919599; stroke:none;" d="M793 494L793 501L794 501L793 494z"/>
<path style="fill:#aaaaac; stroke:none;" d="M569.333 498.667L569.667 499.333L569.333 498.667z"/>
<path style="fill:#9da2a7; stroke:none;" d="M422 499L423 500L422 499z"/>
<path style="fill:#7c7f81; stroke:none;" d="M518 499L518 511L519 511L518 499z"/>
<path style="fill:#81b3cd; stroke:none;" d="M175 500L175 521L176 521L175 500z"/>
<path style="fill:#92c4da; stroke:none;" d="M311 500L311 517L312 517L311 500z"/>
<path style="fill:#d3d2d4; stroke:none;" d="M591 500L591 501L605 501L591 500z"/>
<path style="fill:#61656d; stroke:none;" d="M409 501L409 529L399 529L399 530L410 530L411 501L409 501z"/>
<path style="fill:#ababae; stroke:none;" d="M558 501L558 508L559 508L558 501z"/>
<path style="fill:#7e8389; stroke:none;" d="M465 502L465 529L455 529L455 530L466 530L467 502L465 502z"/>
<path style="fill:#82878c; stroke:none;" d="M529 502L529 507L530 507L529 502z"/>
<path style="fill:#c0c1c1; stroke:none;" d="M792.333 504.667L792.667 505.333L792.333 504.667z"/>
<path style="fill:#a1a7ae; stroke:none;" d="M413 505L414 506L413 505z"/>
<path style="fill:#d7ecee; stroke:none;" d="M226 507L226 508L258 508L226 507z"/>
<path style="fill:#1e7ebc; stroke:none;" d="M227 547C236.185 543.136 240.645 540 251 540L250 531L246 531C247.929 525.599 248.754 521.292 246 516L253 516C248.095 525.427 253.613 533.008 263 536C263 529.652 265.658 515.375 261.397 510.318C259.114 507.608 255.18 508.007 252 508C244.752 507.985 226.102 504.619 222.028 512.059C219.519 516.639 219.809 530.153 221.742 534.957C223.87 540.244 227.996 540.559 227 547z"/>
<path style="fill:#c1c2c1; stroke:none;" d="M815 508L815 530L816 530L815 508z"/>
<path style="fill:#798083; stroke:none;" d="M590 509L590 521L591 521L590 509z"/>
<path style="fill:#fefffe; stroke:none;" d="M591 509L591 521C595.877 521 604.468 522.635 608.682 519.821C612.138 517.514 611.113 512.11 607.852 510.179C603.489 507.595 595.901 509 591 509z"/>
<path style="fill:#6a7174; stroke:none;" d="M841 509C843.815 512.221 853.185 512.221 856 509L841 509z"/>
<path style="fill:#b9bab9; stroke:none;" d="M569.333 510.667L569.667 511.333L569.333 510.667z"/>
<path style="fill:#7f8389; stroke:none;" d="M712 510L712 511L726 511L712 510z"/>
<path style="fill:#7fb8cc; stroke:none;" d="M263 512L263 535L264 535L263 512z"/>
<path style="fill:#a6aaae; stroke:none;" d="M611 513L611 517L612 517L611 513z"/>
<path style="fill:#a5a7a7; stroke:none;" d="M784.333 513.667L784.667 514.333L784.333 513.667z"/>
<path style="fill:#80868c; stroke:none;" d="M763 515L763 516L773 516L763 515z"/>
<path style="fill:#edf4f8; stroke:none;" d="M230 531C236.647 528.849 236.928 527.992 244 530C241.035 512.771 233.386 516.365 230 531z"/>
<path style="fill:#979ea2; stroke:none;" d="M554 516L555 517L554 516z"/>
<path style="fill:#bebfbf; stroke:none;" d="M763 516L763 530L764 530L763 516z"/>
<path style="fill:#9cd895; stroke:none;" d="M191.667 518.333L192.333 518.667L191.667 518.333z"/>
<path style="fill:#696f73; stroke:none;" d="M838 518L838 519L859 519L838 518z"/>
<path style="fill:#1581c5; stroke:none;" d="M237 519C235.98 521.899 235.772 523.308 239 524L237 519z"/>
<path style="fill:#bdbbbe; stroke:none;" d="M622.333 519.667L622.667 520.333L622.333 519.667z"/>
<path style="fill:#d4d6d6; stroke:none;" d="M708 519L708 520L730 520L708 519z"/>
<path style="fill:#d0d2d4; stroke:none;" d="M540 520L540 521L547 521L540 520z"/>
<path style="fill:#959a9e; stroke:none;" d="M667 520L667 521L691 521L667 520z"/>
<path style="fill:#80bedc; stroke:none;" d="M238.333 521.667L238.667 522.333L238.333 521.667z"/>
<path style="fill:#73797f; stroke:none;" d="M591 521L591 522L605 522L591 521z"/>
<path style="fill:#85c2e1; stroke:none;" d="M235 523L239 525L239 524L235 523z"/>
<path style="fill:#b6dfbb; stroke:none;" d="M188 524L188 525L209 525L188 524z"/>
<path style="fill:#7f8387; stroke:none;" d="M479 524L479 525L485 525L479 524z"/>
<path style="fill:#cbcecf; stroke:none;" d="M691 527L693 530L691 527z"/>
<path style="fill:#b0deab; stroke:none;" d="M311 528L311 556L312 556L311 528z"/>
<path style="fill:#51b644; stroke:none;" d="M312 528L310.972 554.911L286 576.424L230 622C232.715 627.361 240.41 634.787 247 632.057C256.784 628.004 265.787 616.838 274 610.197C286.784 599.859 299.368 589.276 312 578.753C316.835 574.725 324.881 570.394 327.972 564.829C336.497 549.484 324.218 535.029 312 528z"/>
<path style="fill:#727579; stroke:none;" d="M745 528L734 529L734 530L745 528z"/>
<path style="fill:#c4c2c3; stroke:none;" d="M794.333 528.667L794.667 529.333L794.333 528.667z"/>
<path style="fill:#b5b9be; stroke:none;" d="M821.333 528.667L821.667 529.333L821.333 528.667z"/>
<path style="fill:#a2a6a8; stroke:none;" d="M188 529L188 530L209 530L188 529z"/>
<path style="fill:#9acbe5; stroke:none;" d="M244 529L241 530L241 531L244 529z"/>
<path style="fill:#727679; stroke:none;" d="M277 529L277 533L278 533L278 530L298 530L277 529z"/>
<path style="fill:#6f7980; stroke:none;" d="M433 529L433 530L442 530L433 529z"/>
<path style="fill:#9399a3; stroke:none;" d="M550.667 529.333L551.333 529.667L550.667 529.333z"/>
<path style="fill:#6f767d; stroke:none;" d="M580 529L580 530L610 530L580 529z"/>
<path style="fill:#747c82; stroke:none;" d="M656 529L656 530L691 530L656 529z"/>
<path style="fill:#7d8285; stroke:none;" d="M693 529L693 530L704 530L693 529z"/>
<path style="fill:#6d747d; stroke:none;" d="M752 529L752 530L763 530L752 529z"/>
<path style="fill:#83878d; stroke:none;" d="M782 529L782 530L794 530L782 529z"/>
<path style="fill:#747e88; stroke:none;" d="M804 529L804 530L815 530L804 529z"/>
<path style="fill:#747f89; stroke:none;" d="M822 529L822 530L833 530L822 529z"/>
<path style="fill:#777e81; stroke:none;" d="M863 529L863 530L875 530L863 529z"/>
<path style="fill:#4c5158; stroke:none;" d="M188 530C188.604 537.818 196.653 537.419 199.64 544.015C200.838 546.66 202.74 550.023 202.548 553C202.267 557.351 198.082 560.54 200.647 565C207.458 576.843 213.068 566.893 222 569.66C231.107 572.481 230.388 578.445 236.652 582.972C239.968 585.369 247.086 584 251 584C252.567 575.924 257.143 568.181 267 569.039C271.583 569.437 274.652 574.182 279.285 571.091C290.895 563.347 280.898 553.036 287.275 542.044C290.597 536.317 297.424 537.451 298 530L278 530L271 548L274 557C269.438 558.472 267.191 558.944 264 555C258.138 557.219 253.455 561.125 247 561.826C227.875 563.906 211.404 548.517 209 530L188 530z"/>
<path style="fill:#aeb1b4; stroke:none;" d="M539 530L539 531L547 531L539 530z"/>
<path style="fill:#7a8089; stroke:none;" d="M174 532L175 556L176 556C176 550.132 178.565 535.989 174 532z"/>
<path style="fill:#b1b3b1; stroke:none;" d="M209.333 532.667L209.667 533.333L209.333 532.667z"/>
<path style="fill:#464e56; stroke:none;" d="M237 605L193 569.576L175.603 553.83L175 533C163.772 538.004 151.379 551.399 159.028 564.711C161.501 569.014 167.237 572.142 171 575.25C179.978 582.665 189.05 589.965 198 597.414C204.253 602.617 214.008 614.301 222 616.111C227.377 617.329 234.86 609.224 237 605z"/>
<path style="fill:#227cc1; stroke:none;" d="M253 534L258 554L261 550L270 556L266 547L271 544L253 534z"/>
<path style="fill:#8a8c90; stroke:none;" d="M276.333 534.667L276.667 535.333L276.333 534.667z"/>
<path style="fill:#878b89; stroke:none;" d="M210.333 537.667L210.667 538.333L210.333 537.667z"/>
<path style="fill:#8a8d90; stroke:none;" d="M275.333 537.667L275.667 538.333L275.333 537.667z"/>
<path style="fill:#c6cacd; stroke:none;" d="M291.667 537.333L292.333 537.667L291.667 537.333z"/>
<path style="fill:#7ab9d7; stroke:none;" d="M227 540L227 545L228 545L227 540z"/>
<path style="fill:#8cca7d; stroke:none;" d="M329 541L329 564L330 564L329 541z"/>
<path style="fill:#92969c; stroke:none;" d="M157 546L157 564L158 564L157 546z"/>
<path style="fill:#b8d6dd; stroke:none;" d="M629 547L629 548L635 548L629 547z"/>
<path style="fill:#89959e; stroke:none;" d="M270.333 548.667L270.667 549.333L270.333 548.667z"/>
<path style="fill:#a6c9dc; stroke:none;" d="M377 548L377 549L388 549L377 548z"/>
<path style="fill:#92c1d8; stroke:none;" d="M421 548L421 549L431 549L421 548z"/>
<path style="fill:#93c0da; stroke:none;" d="M460 548L460 549L471 549L460 548z"/>
<path style="fill:#6fb0d3; stroke:none;" d="M498 548L498 597L510 597L511 568C506.025 572.347 509 589.53 509 596L499 596L499 549L508 549L498 548z"/>
<path style="fill:#adcbd6; stroke:none;" d="M531 548L531 549L542 549L531 548z"/>
<path style="fill:#92bbd4; stroke:none;" d="M571 548L571 549L582 549L571 548z"/>
<path style="fill:#2780c1; stroke:none;" d="M651 572L641 572C641 575.667 642.056 581.395 639.972 584.606C634.195 593.505 620.984 584.772 618.148 578C610.999 560.93 632.524 553.595 644 563C661.383 550.599 629.42 545.677 620 549.905C597.328 560.081 603.596 596.694 629 596.996C634.903 597.066 647.423 597.18 650.397 590.66C652.624 585.775 651 577.315 651 572z"/>
<path style="fill:#a3c8d6; stroke:none;" d="M638.667 548.333L639.333 548.667L638.667 548.333z"/>
<path style="fill:#95c7d9; stroke:none;" d="M662 548L662 549L698 549L698 558L699 558L699 548L662 548z"/>
<path style="fill:#a8cbdc; stroke:none;" d="M709 548L709 549L735 549L709 548z"/>
<path style="fill:#5babcc; stroke:none;" d="M377 549L377 597L388 597L388 596L378 596C378 582.735 382.109 561.177 377 549z"/>
<path style="fill:#2784c8; stroke:none;" d="M378 549L378 596L388 596L388 569L389 569C391.221 574.306 398.959 594.434 406.788 589.968C413.607 586.077 415.465 574.475 421 569L421 596L431 596L431 549C417.095 549.002 408.967 565.469 405 578C397.384 566.49 393.362 549.002 378 549z"/>
<path style="fill:#b8dadb; stroke:none;" d="M431 549L431 597L432 597C432 583.474 436.209 561.414 431 549z"/>
<path style="fill:#1f7dc0; stroke:none;" d="M439 596C442.197 596 446.791 596.787 449.606 594.972C454.965 591.518 453.119 586.153 461.001 586.005C464.773 585.933 470.262 585.069 473.787 586.603C477.458 588.201 477.422 592.864 480.498 594.972C483.202 596.825 487.887 596 491 596L477.694 563L471.362 550.603L461.213 549.318L454.231 560L439 596z"/>
<path style="fill:#2680c2; stroke:none;" d="M499 549L499 596L509 596L509 568C520.41 578.128 524.983 595.998 542 596L542 549L532 549L532 578C520.983 567.938 515.819 549.013 499 549z"/>
<path style="fill:#56a3ce; stroke:none;" d="M531 549L530 578C534.354 574.195 533.193 554.226 531 549z"/>
<path style="fill:#a9d1d8; stroke:none;" d="M542 549L542 597L543 597C543 583.474 547.209 561.414 542 549z"/>
<path style="fill:#2382c5; stroke:none;" d="M549 597L561 597C563.943 586.784 574.376 582.055 584.786 586.603C588.173 588.083 588.23 592.092 590.699 594.397C593.412 596.93 598.589 596 602 596C599.827 583.771 591.167 560.781 583.031 551.318C580.658 548.557 574.616 548.086 571.39 549.603C567.411 551.475 565.94 558.331 564.22 562C558.947 573.247 552.437 585.064 549 597z"/>
<path style="fill:#247dbe; stroke:none;" d="M662 549L663 596L699 596L699 588C692.967 588 680.441 590.391 675.318 586.972C671.915 584.701 672.411 578.235 676.148 576.603C681.176 574.408 689.567 576 695 576L695 568L673 568L673 558L698 558L698 549L662 549z"/>
<path style="fill:#7ebeda; stroke:none;" d="M709 549L709 597L710 597C710 583.474 714.209 561.414 709 549z"/>
<path style="fill:#237dc4; stroke:none;" d="M710 549L710 596L720 596L720 583C732.255 583.001 730.32 589.781 739.21 594.972C742.428 596.852 747.412 596 751 596L742 580C753.131 575.481 754.184 558.535 743.96 552.228C734.697 546.514 720.395 549 710 549z"/>
<path style="fill:#7cb2d2; stroke:none;" d="M736 549L736 550L739 550L736 549z"/>
<path style="fill:#9ba1a2; stroke:none;" d="M203.333 552.667L203.667 553.333L203.333 552.667z"/>
<path style="fill:#97c5dc; stroke:none;" d="M257.333 552.667L257.667 553.333L257.333 552.667z"/>
<path style="fill:#898e8f; stroke:none;" d="M282.333 552.667L282.667 553.333L282.333 552.667z"/>
<path style="fill:#9cd98d; stroke:none;" d="M788 552L788 553L795 553L788 552z"/>
<path style="fill:#57b942; stroke:none;" d="M774 590C783.267 587.913 795.647 591.698 803.826 585.867C826.397 569.771 793.365 537.919 776.804 560.093C770.204 568.93 777.261 580.258 774 590z"/>
<path style="fill:#cdcfcf; stroke:none;" d="M825 554L825 555L870 555C858.299 550.09 837.742 554 825 554z"/>
<path style="fill:#97b7c7; stroke:none;" d="M651.333 555.667L651.667 556.333L651.333 555.667z"/>
<path style="fill:#4f5256; stroke:none;" d="M825 555C827.915 560.457 841.283 573.962 848 573.338C854.808 572.706 866.108 560.288 870 555L825 555z"/>
<path style="fill:#7fb4d2; stroke:none;" d="M628 557L628 558L635 558L628 557z"/>
<path style="fill:#4e9fd7; stroke:none;" d="M721 557L721 558L731 558L721 557z"/>
<path style="fill:#a0cadc; stroke:none;" d="M673 558L673 568L695 568L695 567L674 567L673 558z"/>
<path style="fill:#d5e4ea; stroke:none;" d="M721 558L721 574L734 574L734 573L722 573L721 558z"/>
<path style="fill:#fdfdfd; stroke:none;" d="M722 558L722 573C726.073 573 732.221 574.122 735.852 571.972C740.139 569.434 739.917 561.992 735.772 559.457C731.939 557.113 726.294 558 722 558z"/>
<path style="fill:#b4b7b8; stroke:none;" d="M821 558L821 584L822 584L823 558L821 558z"/>
<path style="fill:#c2c7cb; stroke:none;" d="M267.667 559.333L268.333 559.667L267.667 559.333z"/>
<path style="fill:#484e55; stroke:none;" d="M822 559L822 585L837 572L837 571L822 559z"/>
<path style="fill:#4a4e54; stroke:none;" d="M872 559L858 571L858 572L873 585L872 559z"/>
<path style="fill:#cbced1; stroke:none;" d="M873 559L872 586C876.229 582.304 875.118 564.046 873 559z"/>
<path style="fill:#a3aaab; stroke:none;" d="M181 560L182 561L181 560z"/>
<path style="fill:#c7c7c7; stroke:none;" d="M232.667 560.333L233.333 560.667L232.667 560.333z"/>
<path style="fill:#8c8f97; stroke:none;" d="M252.667 560.333L253.333 560.667L252.667 560.333z"/>
<path style="fill:#fcfdf6; stroke:none;" d="M783.702 561.086C775.13 567.33 793.638 586.819 802.377 579.836C804.025 578.52 803.334 576.446 801.677 575.51C799.216 574.119 796.527 575.786 794.002 574.856C787.87 572.598 789.977 567.657 788.093 563.149C787.41 561.513 785.484 559.788 783.702 561.086z"/>
<path style="fill:#a4a5a8; stroke:none;" d="M824 560L825 561L824 560z"/>
<path style="fill:#95979a; stroke:none;" d="M235.667 561.333L236.333 561.667L235.667 561.333z"/>
<path style="fill:#989ba0; stroke:none;" d="M248.667 561.333L249.333 561.667L248.667 561.333z"/>
<path style="fill:#f5faf9; stroke:none;" d="M464 561L459 577L472 577L464 561z"/>
<path style="fill:#f8fcfe; stroke:none;" d="M575 561L569 577L583 577L577 561L575 561z"/>
<path style="fill:#92c1da; stroke:none;" d="M739 563L739 568L740 568L739 563z"/>
<path style="fill:#afdf9d; stroke:none;" d="M781 563L781 567L782 567L781 563z"/>
<path style="fill:#aedda7; stroke:none;" d="M773 567L773 574L774 574L773 567z"/>
<path style="fill:#9d9fa4; stroke:none;" d="M832 567L833 568L832 567z"/>
<path style="fill:#95c7dd; stroke:none;" d="M605 568L605 577L606 577L605 568z"/>
<path style="fill:#c4e1df; stroke:none;" d="M695 568L695 576L696 576L695 568z"/>
<path style="fill:#b9dfa9; stroke:none;" d="M787.333 568.667L787.667 569.333L787.333 568.667z"/>
<path style="fill:#a1a3a5; stroke:none;" d="M192 569L193 570L192 569z"/>
<path style="fill:#c9e5ea; stroke:none;" d="M388 569L388 597L389 597L388 569z"/>
<path style="fill:#b5d8e1; stroke:none;" d="M419 569L420 597L421 597C421 590.53 423.975 573.347 419 569z"/>
<path style="fill:#7ab8d7; stroke:none;" d="M640 571L640 586L641 586L641 572L651 572L640 571z"/>
<path style="fill:#cfe2e6; stroke:none;" d="M651 571L651 592L652 592L651 571z"/>
<path style="fill:#aeb1b3; stroke:none;" d="M253.333 573.667L253.667 574.333L253.333 573.667z"/>
<path style="fill:#798283; stroke:none;" d="M839.667 574.333L840.333 574.667L839.667 574.333z"/>
<path style="fill:#4a5058; stroke:none;" d="M854 574L839 575.737L825 589L870 589L854 574z"/>
<path style="fill:#c1c3c3; stroke:none;" d="M233.333 576.667L233.667 577.333L233.333 576.667z"/>
<path style="fill:#999b9e; stroke:none;" d="M252.333 576.667L252.667 577.333L252.333 576.667z"/>
<path style="fill:#71b0d5; stroke:none;" d="M458 576L472 578L472 577L458 576z"/>
<path style="fill:#78b2cc; stroke:none;" d="M617.333 576.667L617.667 577.333L617.333 576.667z"/>
<path style="fill:#83b7d9; stroke:none;" d="M674 576L674 577L695 577L674 576z"/>
<path style="fill:#9fe496; stroke:none;" d="M794.667 576.333L795.333 576.667L794.667 576.333z"/>
<path style="fill:#9da1a0; stroke:none;" d="M851 576L852 577L851 576z"/>
<path style="fill:#7ab7dc; stroke:none;" d="M569 577L569 578L583 578L569 577z"/>
<path style="fill:#78b7d7; stroke:none;" d="M673 577L673 587L674 587L673 577z"/>
<path style="fill:#7fb2d0; stroke:none;" d="M606.333 578.667L606.667 579.333L606.333 578.667z"/>
<path style="fill:#bfc0bd; stroke:none;" d="M846.667 578.333L847.333 578.667L846.667 578.333z"/>
<path style="fill:#55a1ce; stroke:none;" d="M662 581L662 597L699 597L699 596L663 596L662 581z"/>
<path style="fill:#bce0b0; stroke:none;" d="M796 581L796 582L801 582L796 581z"/>
<path style="fill:#9ba1a2; stroke:none;" d="M181 583L182 584L181 583z"/>
<path style="fill:#519dce; stroke:none;" d="M720 583L720 596L710 596L710 597L721 597L720 583z"/>
<path style="fill:#d0e4ec; stroke:none;" d="M565 586L565 587L587 587L565 586z"/>
<path style="fill:#c3dae2; stroke:none;" d="M627 587L627 588L637 588L627 587z"/>
<path style="fill:#89bad4; stroke:none;" d="M674 587L674 588L699 588L674 587z"/>
<path style="fill:#b4e3c2; stroke:none;" d="M780 587L780 588L784 588L780 587z"/>
<path style="fill:#a6c8d8; stroke:none;" d="M699 588L699 597L700 597L699 588z"/>
<path style="fill:#88d378; stroke:none;" d="M787 589L787 590L795 590L787 589z"/>
<path style="fill:#d7dadc; stroke:none;" d="M825 589L825 590L870 590C858.299 585.09 837.742 589 825 589z"/>
<path style="fill:#69a5cb; stroke:none;" d="M401 591L401 592L407 592L401 591z"/>
<path style="fill:#529ccc; stroke:none;" d="M491 595L480 596L480 597L491 595z"/>
<path style="fill:#509ed0; stroke:none;" d="M602 595L591 596L591 597L602 595z"/>
<path style="fill:#509ccc; stroke:none;" d="M751 595L739 596L739 597L751 595z"/>
<path style="fill:#579fca; stroke:none;" d="M421 596L421 597L431 597L421 596z"/>
<path style="fill:#519fd2; stroke:none;" d="M439 596L439 597L450 597L439 596z"/>
<path style="fill:#5a9fcd; stroke:none;" d="M533 596L533 597L542 597L533 596z"/>
<path style="fill:#72afd7; stroke:none;" d="M638 596L638 597L641 597L638 596z"/>
<path style="fill:#77b4d9; stroke:none;" d="M627 597L627 598L635 598L627 597z"/>
<path style="fill:#a1a4a6; stroke:none;" d="M209 606L210 607L209 606z"/>
<path style="fill:#a3a5a6; stroke:none;" d="M215 611L216 612L215 611z"/>
<path style="fill:#7dc671; stroke:none;" d="M242 633L242 634L246 634L242 633z"/>
</svg>
